<svg version="1.1" preserveAspectRatio="none" xmlns="http://www.w3.org/2000/svg" width="500" height="500" viewBox="0 0 500 500"><rect width="100%" height="100%" fill="#012B28" fill-opacity="1"/><svg viewBox="1602.5731 1152.3222 395.6936 250" width="333" height="210.3900593792773" x="83.5px" y="144.805px" xmlns="http://www.w3.org/2000/svg" xmlns:xlink="http://www.w3.org/1999/xlink" preserveAspectRatio="none"><defs></defs><style>.companyName {fill:#EBB42C;fill-opacity:1;}.icon2 {fill:#E7240E;fill-opacity:1;}.icon3 {fill:#B47049;fill-opacity:1;}.icon3-str {stroke:#B47049;stroke-opacity:1;}</style><g opacity="1" transform="rotate(0 1602.5731 1322.3222)">
<svg width="395.6936" height="80" x="1602.5731" y="1322.3222" version="1.1" preserveAspectRatio="none" viewBox="6.4 -28.48 143.23999999999998 28.96">
  <g transform="matrix(1 0 0 1 0 0)" class="companyName"><path id="id-D6z1nYkh4" d="M10.04-28L6.40-28L6.40 0L10.04 0L10.04-28Z M34.44-14L34.44-14Q34.44-11.76 35.30-9.22Q36.16-6.68 38-4.52Q39.84-2.36 42.68-0.94Q45.52 0.48 49.48 0.48L49.48 0.48Q52.16 0.48 54.34-0.18Q56.52-0.84 58.26-1.96Q60-3.08 61.28-4.54Q62.56-6 63.38-7.62Q64.20-9.24 64.62-10.88Q65.04-12.52 65.04-14L65.04-14Q65.04-16.24 64.12-18.78Q63.20-21.32 61.28-23.48Q59.36-25.64 56.42-27.06Q53.48-28.48 49.48-28.48L49.48-28.48Q45.52-28.48 42.68-27.08Q39.84-25.68 38-23.54Q36.16-21.40 35.30-18.84Q34.44-16.28 34.44-14ZM38.36-14L38.36-14Q38.36-16.80 39.22-19.14Q40.08-21.48 41.58-23.16Q43.08-24.84 45.12-25.78Q47.16-26.72 49.56-26.72L49.56-26.72Q51.92-26.72 54.02-25.78Q56.12-24.84 57.70-23.16Q59.28-21.48 60.20-19.14Q61.12-16.80 61.12-14L61.12-14Q61.12-11.20 60.20-8.86Q59.28-6.52 57.70-4.84Q56.12-3.16 54.02-2.22Q51.92-1.28 49.56-1.28L49.56-1.28Q47.16-1.28 45.12-2.22Q43.08-3.16 41.58-4.84Q40.08-6.52 39.22-8.86Q38.36-11.20 38.36-14Z M87.24-7.08L84.52-7.08Q84.60-5.36 85.42-3.96Q86.24-2.56 87.66-1.58Q89.08-0.60 91.00-0.06Q92.92 0.48 95.20 0.48L95.20 0.48Q97.52 0.48 99.38-0.08Q101.24-0.64 102.56-1.68Q103.88-2.72 104.60-4.20Q105.32-5.68 105.32-7.48L105.32-7.48Q105.32-9.96 104.08-11.54Q102.84-13.12 100.98-14.18Q99.12-15.24 96.94-15.96Q94.76-16.68 92.90-17.48Q91.04-18.28 89.80-19.32Q88.56-20.36 88.56-22.08L88.56-22.08Q88.56-23.04 88.98-23.88Q89.40-24.72 90.22-25.34Q91.04-25.96 92.24-26.34Q93.44-26.72 95-26.72L95-26.72Q97.60-26.72 99.42-25.62Q101.24-24.52 101.56-22.16L101.56-22.16L104.28-22.16Q104.04-23.64 103.20-24.82Q102.36-26 101.08-26.82Q99.80-27.64 98.18-28.06Q96.56-28.48 94.80-28.48L94.80-28.48Q92.96-28.48 91.30-28Q89.64-27.52 88.38-26.60Q87.12-25.68 86.38-24.28Q85.64-22.88 85.64-21.08L85.64-21.08Q85.64-18.72 86.84-17.28Q88.04-15.84 89.86-14.88Q91.68-13.92 93.80-13.24Q95.92-12.56 97.74-11.70Q99.56-10.84 100.76-9.60Q101.96-8.36 101.96-6.28L101.96-6.28Q101.96-3.68 100.06-2.48Q98.16-1.28 95-1.28L95-1.28Q92.48-1.28 90.96-1.94Q89.44-2.60 88.64-3.52Q87.84-4.44 87.56-5.42Q87.28-6.40 87.24-7.08L87.24-7.08Z M130.88-28L127.24-28L127.24-10.80Q127.24-9.16 127.56-7.18Q127.88-5.20 129.08-3.50Q130.28-1.80 132.64-0.66Q135 0.48 139.08 0.48L139.08 0.48Q141.64 0.48 143.62-0.32Q145.60-1.12 146.94-2.52Q148.28-3.92 148.96-5.78Q149.64-7.64 149.64-9.76L149.64-9.76L149.64-28L147.88-28L147.88-11.08Q147.88-10.20 147.84-9.30Q147.80-8.40 147.60-7.50Q147.40-6.60 146.98-5.72Q146.56-4.84 145.76-3.96L145.76-3.96Q144.32-2.40 142.52-1.84Q140.72-1.28 138.76-1.28L138.76-1.28Q137.08-1.28 135.78-1.80Q134.48-2.32 133.32-3.36L133.32-3.36Q132.40-4.16 131.92-4.96Q131.44-5.76 131.20-6.54Q130.96-7.32 130.92-8.12Q130.88-8.92 130.88-9.72L130.88-9.72L130.88-28Z"/></g>
</svg>
</g><g opacity="1" transform="rotate(0 1750.4199 1152.3222)">
<svg width="100" height="100" x="1750.4199" y="1152.3222" version="1.1" preserveAspectRatio="none" viewBox="23.5 23.5 153 153">
  <g transform="matrix(1 0 0 1 0 0)" ><g><path d="m29.934 140.158-6.434-6.434c42.152-42.152 110.737-42.152 152.888 0l-6.434 6.434c-38.604-38.604-101.416-38.604-140.02 0z" data-color="1" class="companyName"></path><path d="m41.998 152.222-6.434-6.434c35.499-35.499 93.26-35.499 128.759 0l-6.434 6.434c-31.951-31.952-83.939-31.951-115.891 0z" data-color="1" class="companyName"></path><path d="m54.063 164.286-6.434-6.434c28.847-28.847 75.784-28.847 104.631 0l-6.434 6.434c-25.3-25.299-66.464-25.299-91.763 0z" data-color="1" class="companyName"></path><path d="m66.127 176.35-6.434-6.434c22.195-22.195 58.308-22.195 80.503 0l-6.434 6.434c-18.648-18.647-48.988-18.646-67.635 0z" data-color="1" class="companyName"></path><path d="m59.842 170.066 6.434 6.434c42.152-42.152 42.152-110.737 0-152.888l-6.434 6.434c38.604 38.604 38.604 101.416 0 140.02z" data-color="2" class="icon2"></path><path d="m47.778 158.002 6.434 6.434c35.499-35.499 35.499-93.26 0-128.759l-6.434 6.434c31.952 31.951 31.951 83.939 0 115.891z" data-color="2" class="icon2"></path><path d="m35.714 145.937 6.434 6.434c28.847-28.847 28.847-75.784 0-104.631l-6.434 6.434c25.299 25.3 25.299 66.464 0 91.763z" data-color="2" class="icon2"></path><path d="m23.65 133.873 6.434 6.434c22.195-22.195 22.195-58.308 0-80.503l-6.434 6.434c18.647 18.648 18.646 48.988 0 67.635z" data-color="2" class="icon2"></path><g opacity=".66"><path d="m59.842 170.066 6.434 6.434c42.152-42.152 42.152-110.737 0-152.888l-6.434 6.434c38.604 38.604 38.604 101.416 0 140.02z" data-color="1" class="companyName"></path><path d="m47.778 158.002 6.434 6.434c35.499-35.499 35.499-93.26 0-128.759l-6.434 6.434c31.952 31.951 31.951 83.939 0 115.891z" data-color="1" class="companyName"></path><path d="m35.714 145.937 6.434 6.434c28.847-28.847 28.847-75.784 0-104.631l-6.434 6.434c25.299 25.3 25.299 66.464 0 91.763z" data-color="1" class="companyName"></path><path d="m23.65 133.873 6.434 6.434c22.195-22.195 22.195-58.308 0-80.503l-6.434 6.434c18.647 18.648 18.646 48.988 0 67.635z" data-color="1" class="companyName"></path></g><path d="m170.066 59.842 6.434 6.434c-42.152 42.152-110.737 42.152-152.888 0l6.434-6.434c38.604 38.604 101.416 38.604 140.02 0z" data-color="2" class="icon2"></path><path d="m158.002 47.778 6.434 6.434c-35.499 35.499-93.26 35.499-128.759 0l6.434-6.434c31.951 31.952 83.939 31.951 115.891 0z" data-color="2" class="icon2"></path><path d="m145.937 35.714 6.434 6.434c-28.847 28.847-75.784 28.847-104.631 0l6.434-6.434c25.3 25.299 66.464 25.299 91.763 0z" data-color="2" class="icon2"></path><path d="m133.873 23.65 6.434 6.434c-22.195 22.195-58.308 22.195-80.503 0l6.434-6.434c18.648 18.647 48.988 18.646 67.635 0z" data-color="2" class="icon2"></path><g opacity=".33"><path d="m170.066 59.842 6.434 6.434c-42.152 42.152-110.737 42.152-152.888 0l6.434-6.434c38.604 38.604 101.416 38.604 140.02 0z" data-color="1" class="companyName"></path><path d="m158.002 47.778 6.434 6.434c-35.499 35.499-93.26 35.499-128.759 0l6.434-6.434c31.951 31.952 83.939 31.951 115.891 0z" data-color="1" class="companyName"></path><path d="m145.937 35.714 6.434 6.434c-28.847 28.847-75.784 28.847-104.631 0l6.434-6.434c25.3 25.299 66.464 25.299 91.763 0z" data-color="1" class="companyName"></path><path d="m133.873 23.65 6.434 6.434c-22.195 22.195-58.308 22.195-80.503 0l6.434-6.434c18.648 18.647 48.988 18.646 67.635 0z" data-color="1" class="companyName"></path></g><path d="m140.158 29.934-6.434-6.434c-42.152 42.152-42.152 110.737 0 152.888l6.434-6.434c-38.604-38.604-38.604-101.416 0-140.02z" data-color="2" class="icon2"></path><path d="m152.222 41.998-6.434-6.434c-35.499 35.499-35.499 93.26 0 128.759l6.434-6.434c-31.952-31.951-31.951-83.939 0-115.891z" data-color="2" class="icon2"></path><path d="m164.286 54.063-6.434-6.434c-28.847 28.847-28.847 75.784 0 104.631l6.434-6.434c-25.299-25.3-25.299-66.464 0-91.763z" data-color="2" class="icon2"></path><path d="m176.35 66.127-6.434-6.434c-22.195 22.195-22.195 58.308 0 80.503l6.434-6.434c-18.647-18.648-18.646-48.988 0-67.635z" data-color="2" class="icon2"></path><path d="M139.926 109.733a108.473 108.473 0 0 0-38.022-7.599c.061 3.049.253 6.096.57 9.132a99.189 99.189 0 0 1 37.451 8.352 98.451 98.451 0 0 1 30.028 20.54l6.434-6.434c-10.73-10.732-23.176-18.724-36.461-23.991z" data-color="1" class="companyName"></path><path d="M103.609 119.251c.558 3.1 1.247 6.18 2.077 9.231a81.838 81.838 0 0 1 34.24 10.172 81.728 81.728 0 0 1 17.964 13.568l6.434-6.434a90.608 90.608 0 0 0-24.398-17.396 91.107 91.107 0 0 0-36.317-9.141z" data-color="1" class="companyName"></path><path d="M108.284 136.703a107.446 107.446 0 0 0 4.084 9.799 64.49 64.49 0 0 1 27.558 12.579 65.398 65.398 0 0 1 5.9 5.204l6.434-6.434a73.99 73.99 0 0 0-12.334-9.927c-9.706-6.236-20.557-9.973-31.642-11.221z" data-color="1" class="companyName"></path><path d="M131.059 173.866a48.24 48.24 0 0 1 2.584 2.371l6.283-6.283v-.294a56.558 56.558 0 0 0-22.405-13.611 107.731 107.731 0 0 0 13.538 17.817z" data-color="1" class="companyName"></path></g></g>
</svg>
</g></svg></svg>