<svg version="1.1" preserveAspectRatio="none" xmlns="http://www.w3.org/2000/svg" width="500" height="500" viewBox="0 0 500 500"><rect width="100%" height="100%" fill="#FFFFFF" fill-opacity="1"/><svg viewBox="904.8022 716.1669 398.4748 319.3516" width="333" height="266.87781209752785" x="83.5px" y="116.5611px" xmlns="http://www.w3.org/2000/svg" xmlns:xlink="http://www.w3.org/1999/xlink" preserveAspectRatio="none"><defs></defs><style>.companyName {fill:#0000FF;fill-opacity:1;}.icon1 {fill:#0000FF;fill-opacity:1;}.icon2 {fill:#A9FF94;fill-opacity:1;}.icon3 {fill:#000084;fill-opacity:1;}.icon3-str {stroke:#000084;stroke-opacity:1;}</style><g opacity="1" transform="rotate(0 904.8022 915.5185)">
<svg width="398.4748" height="120" x="904.8022" y="915.5185" version="1.1" preserveAspectRatio="none" viewBox="3.32 -28 94.04 28.32">
  <g transform="matrix(1 0 0 1 0 0)" class="companyName"><path id="id-D6z1nYkh4" d="M3.32 0L3.32-28L9.80-28L9.80 0L3.32 0Z M30.32 0.32Q26.92 0.32 24.22-1.10Q21.52-2.52 20.00-5.04Q18.48-7.56 18.48-10.76L18.48-10.76Q18.48-13.96 20.00-16.48Q21.52-19 24.22-20.42Q26.92-21.84 30.32-21.84L30.32-21.84Q33.72-21.84 36.40-20.42Q39.08-19 40.60-16.48Q42.12-13.96 42.12-10.76L42.12-10.76Q42.12-7.56 40.60-5.04Q39.08-2.52 36.40-1.10Q33.72 0.32 30.32 0.32L30.32 0.32ZM30.32-4.80Q32.72-4.80 34.26-6.42Q35.80-8.04 35.80-10.76L35.80-10.76Q35.80-13.48 34.26-15.10Q32.72-16.72 30.32-16.72L30.32-16.72Q27.92-16.72 26.36-15.10Q24.80-13.48 24.80-10.76L24.80-10.76Q24.80-8.04 26.36-6.42Q27.92-4.80 30.32-4.80L30.32-4.80Z M57.60 0.32Q54.92 0.32 52.36-0.34Q49.80-1 48.28-2L48.28-2L50.36-6.48Q51.80-5.56 53.84-4.98Q55.88-4.40 57.84-4.40L57.84-4.40Q61.80-4.40 61.80-6.36L61.80-6.36Q61.80-7.28 60.72-7.68Q59.64-8.08 57.40-8.36L57.40-8.36Q54.76-8.76 53.04-9.28Q51.32-9.80 50.06-11.12Q48.80-12.44 48.80-14.88L48.80-14.88Q48.80-16.92 49.98-18.50Q51.16-20.08 53.42-20.96Q55.68-21.84 58.76-21.84L58.76-21.84Q61.04-21.84 63.30-21.34Q65.56-20.84 67.04-19.96L67.04-19.96L64.96-15.52Q62.12-17.12 58.76-17.12L58.76-17.12Q56.76-17.12 55.76-16.56Q54.76-16 54.76-15.12L54.76-15.12Q54.76-14.12 55.84-13.72Q56.92-13.32 59.28-12.96L59.28-12.96Q61.92-12.52 63.60-12.02Q65.28-11.52 66.52-10.20Q67.76-8.88 67.76-6.52L67.76-6.52Q67.76-4.52 66.56-2.96Q65.36-1.40 63.06-0.54Q60.76 0.32 57.60 0.32L57.60 0.32Z M91.12-21.52L97.36-21.52L97.36 0L91.44 0L91.44-2.56Q90.20-1.16 88.48-0.42Q86.76 0.32 84.76 0.32L84.76 0.32Q80.52 0.32 78.04-2.12Q75.56-4.56 75.56-9.36L75.56-9.36L75.56-21.52L81.80-21.52L81.80-10.28Q81.80-5.08 86.16-5.08L86.16-5.08Q88.40-5.08 89.76-6.54Q91.12-8 91.12-10.88L91.12-10.88L91.12-21.52Z"/></g>
</svg>
</g><g opacity="1" transform="rotate(0 1024.3447 716.1669)">
<svg width="159.3899" height="159.3516" x="1024.3447" y="716.1669" version="1.1" preserveAspectRatio="none" viewBox="20.41046714782715 20.56975746154785 159.11981201171875 159.08164978027344">
  <g transform="matrix(1 0 0 1 0 0)" ><g><path d="M99.371 61.77c-2.679 2.679-6.943 2.829-9.422.622l-.234-.221L67.944 40.4a7.112 7.112 0 0 1 9.8-10.302l.257.245 21.528 21.528c2.679 2.679 2.608 7.134-.158 9.899zm23.898 56.381l-.39.446c-12.65 14.541-34.405 15.255-47.585 2.064l-.405-.412-43.605-43.606a6.815 6.815 0 0 1 9.385-9.881l.254.242 43.606 43.606c7.882 7.882 21.32 7.343 28.798-2.046 5.925-7.333 4.919-18.34-1.687-25.293l-.359-.369-1.911-1.911c-2.627-2.627-2.608-6.946.042-9.597 2.568-2.568 6.701-2.666 9.345-.281l.251.239 1.672 1.672c12.281 12.279 13.74 32.11 2.589 45.127zm15.638 19.735c-6.929 6.929-15.305 11.932-24.65 14.533-3.715.914-7.442-1.323-8.341-5.174l-.078-.378-.002-.48c-.476-3.241 1.503-6.248 4.653-7.307l.355-.11c7.428-2.129 14.128-6.419 19.621-12.394 15.367-17.274 13.768-43.553-2.391-59.738l-.494-.487-34.244-34.243a6.758 6.758 0 0 1 9.305-9.797l.252.24 34.244 34.244c22.401 22.401 23.748 58.631 1.77 81.091zm-48.7 8.868c-.455 4.254-4.464 6.838-8.726 5.402-8.673-2.315-16.696-7.046-23.431-13.554l-.743-.73-34.936-34.936a6.66 6.66 0 0 1 9.162-9.663l.257.244 34.936 34.936c5.223 5.223 11.385 9.031 18.486 10.951 3.314.959 5.454 4.042 4.995 7.35zm88.676-37.93c-.489 3.24-3.424 5.384-6.639 5.122l-.345-.037-1.911-.463c-3.107-.693-4.761-3.313-4.496-6.427 2.515-19.345-3.785-38.618-17.346-52.579l-.651-.661L131 37.284a6.829 6.829 0 0 1 9.401-9.898l.255.242 16.495 16.495c16.858 16.86 24.801 40.735 21.732 64.701zm-24.027 48.308c-29.834 30.306-80.243 29.723-110.892.065l-.923-.908-15.328-15.328a6.937 6.937 0 0 1-.121-9.687l.115-.118a6.6 6.6 0 0 1 9.079-.241l.254.241 15.805 15.805c25.3 25.3 67.589 25.974 92.462.623 4.305-4.783 8.373-10.282 11.246-16.019 1.676-3.108 5.5-4.545 8.605-3.354 3.582 1.669 5.25 5.729 3.574 9.314-3.351 7.172-8.136 13.867-13.876 19.607z" data-color="1" class="icon1"></path><path d="M100.629 100.74c2.766-2.766 2.875-7.182.242-9.814L54.117 44.171A7.112 7.112 0 0 0 44.06 54.228l46.754 46.754c2.633 2.632 7.049 2.523 9.815-.242z" data-color="2" class="icon2"></path><path opacity=".35" d="M130.464 126.577c-5.493 5.975-12.193 10.266-19.621 12.394-3.355.946-5.501 4.056-5.008 7.416l.002.48c.736 4.081 4.585 6.496 8.419 5.552 9.345-2.601 17.721-7.604 24.65-14.533 21.979-22.46 20.631-58.69-1.77-81.091l-34.243-34.244a6.758 6.758 0 0 0-9.557 9.557l34.244 34.244c16.618 16.14 18.406 42.776 2.884 60.225z" data-color="2" class="icon2"></path><path opacity=".35" d="M90.207 146.754c.459-3.308-1.681-6.39-4.995-7.35-7.101-1.92-13.263-5.729-18.486-10.951L31.789 93.516a6.66 6.66 0 1 0-9.419 9.419l34.936 34.936c6.885 6.885 15.18 11.884 24.174 14.285 4.263 1.436 8.271-1.148 8.727-5.402z" data-color="2" class="icon2"></path><path opacity=".7" d="M99.371 61.77c2.766-2.766 2.836-7.22.157-9.899L78.001 30.343A7.112 7.112 0 0 0 67.944 40.4l21.771 21.771c2.436 2.436 6.891 2.365 9.656-.401z" data-color="2" class="icon2"></path><path opacity=".7" d="M122.879 118.597c11.573-13.006 10.223-33.153-2.198-45.573l-1.672-1.672c-2.627-2.627-6.946-2.608-9.597.042-2.651 2.651-2.67 6.969-.042 9.597l1.911 1.911c6.927 6.927 8.077 18.198 2.046 25.661-7.479 9.39-20.916 9.929-28.798 2.046L40.923 67.004a6.815 6.815 0 0 0-9.639 0 6.815 6.815 0 0 0 0 9.639l43.606 43.606c13.135 13.616 35.209 13.039 47.989-1.652z" data-color="2" class="icon2"></path></g></g>
</svg>
</g></svg></svg>