<svg version="1.1" preserveAspectRatio="none" xmlns="http://www.w3.org/2000/svg" width="500" height="500" viewBox="0 0 500 500"><rect width="100%" height="100%" fill="#101F37" fill-opacity="1"/><svg viewBox="160.7222 646.1602 350.8959 270.3247" width="333" height="256.5379792126383" x="83.5px" y="121.731px" xmlns="http://www.w3.org/2000/svg" xmlns:xlink="http://www.w3.org/1999/xlink" preserveAspectRatio="none"><defs></defs><style>.companyName {fill:#E9B0D6;fill-opacity:1;}.icon1 {fill:#929292;fill-opacity:1;}.icon2 {fill:#E9B0D6;fill-opacity:1;}.icon3 {fill:#E5E5E5;fill-opacity:1;}.icon3-str {stroke:#E5E5E5;stroke-opacity:1;}</style><g opacity="1" transform="rotate(0 160.7222 816.4849)">
<svg width="350.8959" height="100" x="160.7222" y="816.4849" version="1.1" preserveAspectRatio="none" viewBox="3.5547 -30.5273 108.55860000000001 30.9375">
  <g transform="matrix(1 0 0 1 0 0)" class="companyName"><path id="id-D6z1nYkh4" d="M3.55 0L3.55-30.53L9.79-30.53L9.79 0L3.55 0Z M17.57-11.52L17.57-11.52Q17.57-14.00 18.57-16.17Q19.58-18.34 21.44-19.96Q23.31-21.58 25.96-22.52Q28.60-23.46 31.90-23.46L31.90-23.46Q35.20-23.46 37.85-22.52Q40.50-21.58 42.36-19.96Q44.23-18.34 45.23-16.17Q46.24-14.00 46.24-11.52L46.24-11.52Q46.24-9.04 45.23-6.88Q44.23-4.71 42.36-3.09Q40.50-1.46 37.85-0.53Q35.20 0.41 31.90 0.41L31.90 0.41Q28.60 0.41 25.96-0.53Q23.31-1.46 21.44-3.09Q19.58-4.71 18.57-6.88Q17.57-9.04 17.57-11.52ZM23.64-11.52L23.64-11.52Q23.64-10.14 24.20-8.90Q24.75-7.66 25.82-6.71Q26.88-5.76 28.42-5.21Q29.95-4.65 31.90-4.65L31.90-4.65Q33.86-4.65 35.39-5.21Q36.92-5.76 37.99-6.71Q39.05-7.66 39.61-8.90Q40.16-10.14 40.16-11.52L40.16-11.52Q40.16-12.91 39.61-14.16Q39.05-15.41 37.99-16.36Q36.92-17.30 35.39-17.86Q33.86-18.42 31.90-18.42L31.90-18.42Q29.95-18.42 28.42-17.86Q26.88-17.30 25.82-16.36Q24.75-15.41 24.20-14.16Q23.64-12.91 23.64-11.52Z M52.50-2.70L55.00-7.07Q57.34-5.66 60.15-5Q62.96-4.34 65.91-4.34L65.91-4.34Q67.91-4.34 69.23-4.61Q70.56-4.88 71.36-5.31Q72.16-5.74 72.50-6.29Q72.83-6.84 72.83-7.40L72.83-7.40Q72.83-8.22 72.12-8.81Q71.40-9.39 69.76-9.39L69.76-9.39Q69-9.39 68.12-9.30Q67.24-9.20 66.28-9.09Q65.31-8.98 64.26-8.89Q63.22-8.79 62.14-8.79L62.14-8.79Q59.80-8.79 58.15-9.30Q56.50-9.80 55.46-10.68Q54.43-11.56 53.96-12.76Q53.49-13.96 53.49-15.35L53.49-15.35Q53.49-17.11 54.31-18.59Q55.13-20.08 56.66-21.16Q58.18-22.25 60.34-22.85Q62.50-23.46 65.15-23.46L65.15-23.46Q66.54-23.46 68.05-23.29Q69.57-23.13 71.03-22.85Q72.50-22.58 73.84-22.22Q75.19-21.86 76.23-21.45L76.23-21.45L74.41-16.95Q72.20-17.77 70.01-18.25Q67.81-18.73 65.48-18.73L65.48-18.73Q63.86-18.73 62.74-18.49Q61.62-18.24 60.91-17.84Q60.21-17.44 59.89-16.92Q59.57-16.41 59.57-15.84L59.57-15.84Q59.57-15.43 59.73-15.10Q59.90-14.77 60.28-14.52Q60.66-14.28 61.28-14.15Q61.89-14.02 62.79-14.02L62.79-14.02Q63.61-14.02 64.53-14.12Q65.45-14.22 66.44-14.33Q67.44-14.43 68.50-14.53Q69.57-14.63 70.68-14.63L70.68-14.63Q72.75-14.63 74.30-14.14Q75.86-13.65 76.87-12.77Q77.89-11.89 78.39-10.70Q78.90-9.51 78.90-8.11L78.90-8.11Q78.90-6.29 78.06-4.73Q77.22-3.16 75.56-2.02Q73.90-0.88 71.43-0.23Q68.96 0.41 65.72 0.41L65.72 0.41Q63.73 0.41 61.87 0.17Q60.02-0.08 58.34-0.50Q56.66-0.92 55.18-1.48Q53.71-2.05 52.50-2.70L52.50-2.70Z M86.10-11.00L86.10-23.07L91.86-23.07L91.86-11.82Q91.86-10.21 92.21-8.90Q92.56-7.58 93.41-6.64Q94.26-5.70 95.68-5.19Q97.09-4.67 99.20-4.67L99.20-4.67Q100.20-4.67 101.22-4.88Q102.25-5.10 103.19-5.48Q104.13-5.86 104.94-6.39Q105.75-6.91 106.33-7.54L106.33-7.54L106.33-23.07L112.11-23.07L112.11 0L106.33 0L106.33-1.97Q104.20-0.70 102.05-0.16Q99.91 0.39 97.97 0.39L97.97 0.39Q94.81 0.39 92.55-0.37Q90.30-1.13 88.86-2.59Q87.43-4.04 86.76-6.16Q86.10-8.28 86.10-11.00L86.10-11.00Z"/></g>
</svg>
</g><g opacity="1" transform="rotate(0 265.991 646.1602)">
<svg width="140.3583" height="140.3247" x="265.991" y="646.1602" version="1.1" preserveAspectRatio="none" viewBox="20.41046714782715 20.56975746154785 159.11981201171875 159.08164978027344">
  <g transform="matrix(1 0 0 1 0 0)" ><g><path d="M99.371 61.77c-2.679 2.679-6.943 2.829-9.422.622l-.234-.221L67.944 40.4a7.112 7.112 0 0 1 9.8-10.302l.257.245 21.528 21.528c2.679 2.679 2.608 7.134-.158 9.899zm23.898 56.381l-.39.446c-12.65 14.541-34.405 15.255-47.585 2.064l-.405-.412-43.605-43.606a6.815 6.815 0 0 1 9.385-9.881l.254.242 43.606 43.606c7.882 7.882 21.32 7.343 28.798-2.046 5.925-7.333 4.919-18.34-1.687-25.293l-.359-.369-1.911-1.911c-2.627-2.627-2.608-6.946.042-9.597 2.568-2.568 6.701-2.666 9.345-.281l.251.239 1.672 1.672c12.281 12.279 13.74 32.11 2.589 45.127zm15.638 19.735c-6.929 6.929-15.305 11.932-24.65 14.533-3.715.914-7.442-1.323-8.341-5.174l-.078-.378-.002-.48c-.476-3.241 1.503-6.248 4.653-7.307l.355-.11c7.428-2.129 14.128-6.419 19.621-12.394 15.367-17.274 13.768-43.553-2.391-59.738l-.494-.487-34.244-34.243a6.758 6.758 0 0 1 9.305-9.797l.252.24 34.244 34.244c22.401 22.401 23.748 58.631 1.77 81.091zm-48.7 8.868c-.455 4.254-4.464 6.838-8.726 5.402-8.673-2.315-16.696-7.046-23.431-13.554l-.743-.73-34.936-34.936a6.66 6.66 0 0 1 9.162-9.663l.257.244 34.936 34.936c5.223 5.223 11.385 9.031 18.486 10.951 3.314.959 5.454 4.042 4.995 7.35zm88.676-37.93c-.489 3.24-3.424 5.384-6.639 5.122l-.345-.037-1.911-.463c-3.107-.693-4.761-3.313-4.496-6.427 2.515-19.345-3.785-38.618-17.346-52.579l-.651-.661L131 37.284a6.829 6.829 0 0 1 9.401-9.898l.255.242 16.495 16.495c16.858 16.86 24.801 40.735 21.732 64.701zm-24.027 48.308c-29.834 30.306-80.243 29.723-110.892.065l-.923-.908-15.328-15.328a6.937 6.937 0 0 1-.121-9.687l.115-.118a6.6 6.6 0 0 1 9.079-.241l.254.241 15.805 15.805c25.3 25.3 67.589 25.974 92.462.623 4.305-4.783 8.373-10.282 11.246-16.019 1.676-3.108 5.5-4.545 8.605-3.354 3.582 1.669 5.25 5.729 3.574 9.314-3.351 7.172-8.136 13.867-13.876 19.607z" data-color="1" class="icon1"></path><path d="M100.629 100.74c2.766-2.766 2.875-7.182.242-9.814L54.117 44.171A7.112 7.112 0 0 0 44.06 54.228l46.754 46.754c2.633 2.632 7.049 2.523 9.815-.242z" data-color="2" class="icon2"></path><path opacity=".35" d="M130.464 126.577c-5.493 5.975-12.193 10.266-19.621 12.394-3.355.946-5.501 4.056-5.008 7.416l.002.48c.736 4.081 4.585 6.496 8.419 5.552 9.345-2.601 17.721-7.604 24.65-14.533 21.979-22.46 20.631-58.69-1.77-81.091l-34.243-34.244a6.758 6.758 0 0 0-9.557 9.557l34.244 34.244c16.618 16.14 18.406 42.776 2.884 60.225z" data-color="2" class="icon2"></path><path opacity=".35" d="M90.207 146.754c.459-3.308-1.681-6.39-4.995-7.35-7.101-1.92-13.263-5.729-18.486-10.951L31.789 93.516a6.66 6.66 0 1 0-9.419 9.419l34.936 34.936c6.885 6.885 15.18 11.884 24.174 14.285 4.263 1.436 8.271-1.148 8.727-5.402z" data-color="2" class="icon2"></path><path opacity=".7" d="M99.371 61.77c2.766-2.766 2.836-7.22.157-9.899L78.001 30.343A7.112 7.112 0 0 0 67.944 40.4l21.771 21.771c2.436 2.436 6.891 2.365 9.656-.401z" data-color="2" class="icon2"></path><path opacity=".7" d="M122.879 118.597c11.573-13.006 10.223-33.153-2.198-45.573l-1.672-1.672c-2.627-2.627-6.946-2.608-9.597.042-2.651 2.651-2.67 6.969-.042 9.597l1.911 1.911c6.927 6.927 8.077 18.198 2.046 25.661-7.479 9.39-20.916 9.929-28.798 2.046L40.923 67.004a6.815 6.815 0 0 0-9.639 0 6.815 6.815 0 0 0 0 9.639l43.606 43.606c13.135 13.616 35.209 13.039 47.989-1.652z" data-color="2" class="icon2"></path></g></g>
</svg>
</g></svg></svg>